<svg xmlns="http://www.w3.org/2000/svg" width="20" height="15.553" viewBox="0 0 20 15.553">
  <path id="Icon_awesome-home" data-name="Icon awesome-home" d="M9.734,5.537l-6.4,5.272V16.5a.556.556,0,0,0,.556.556l3.891-.01a.556.556,0,0,0,.553-.556V13.166a.556.556,0,0,1,.556-.556h2.222a.556.556,0,0,1,.556.556v3.321a.556.556,0,0,0,.556.557l3.889.011a.556.556,0,0,0,.556-.556V10.805l-6.4-5.268A.423.423,0,0,0,9.734,5.537ZM19.845,9.121l-2.9-2.393V1.919a.417.417,0,0,0-.417-.417H14.582a.417.417,0,0,0-.417.417V4.44L11.057,1.883a1.667,1.667,0,0,0-2.118,0L.15,9.121a.417.417,0,0,0-.056.587L.98,10.784a.417.417,0,0,0,.587.057L9.734,4.114a.423.423,0,0,1,.531,0l8.167,6.727a.417.417,0,0,0,.587-.056L19.9,9.708a.417.417,0,0,0-.059-.588Z" transform="translate(0.001 -1.502)" fill="#03783c"/>
</svg>
