<svg xmlns="http://www.w3.org/2000/svg" width="16.57" height="16.57" viewBox="0 0 16.57 16.57">
  <path id="Icon_metro-qrcode" data-name="Icon metro-qrcode" d="M6.892,2.321H2.749V6.463H6.892ZM7.928,1.285V7.5H1.714V1.285ZM3.785,3.357H5.856V5.428H3.785ZM17.248,2.321H13.106V6.463h4.142Zm1.036-1.036V7.5H12.07V1.285h6.214ZM14.141,3.357h2.071V5.428H14.141ZM6.892,12.677H2.749V16.82H6.892V12.677Zm1.036-1.036v6.214H1.714V11.642H7.928ZM3.785,13.713H5.856v2.071H3.785ZM8.963,1.285H10V2.321H8.963ZM10,2.321h1.036V3.357H10ZM8.963,3.357H10V4.392H8.963ZM10,4.392h1.036V5.428H10ZM8.963,5.428H10V6.463H8.963ZM10,6.463h1.036V7.5H10ZM8.963,7.5H10V8.535H8.963Zm0,2.071H10v1.036H8.963ZM10,10.606h1.036v1.036H10ZM8.963,11.642H10v1.036H8.963ZM10,12.677h1.036v1.036H10ZM8.963,13.713H10v1.036H8.963ZM10,14.748h1.036v1.036H10ZM8.963,15.784H10V16.82H8.963ZM10,16.82h1.036v1.036H10ZM17.248,9.57h1.036v1.036H17.248Zm-14.5,0H3.785v1.036H2.749ZM3.785,8.535H4.821V9.57H3.785Zm-2.071,0H2.749V9.57H1.714Zm4.142,0H6.892V9.57H5.856ZM6.892,9.57H7.928v1.036H6.892ZM7.928,8.535H8.963V9.57H7.928ZM11.034,9.57H12.07v1.036H11.034ZM12.07,8.535h1.036V9.57H12.07ZM13.106,9.57h1.036v1.036H13.106Zm1.036-1.036h1.036V9.57H14.141ZM15.177,9.57h1.036v1.036H15.177Zm1.036-1.036h1.036V9.57H16.213Zm1.036,3.107h1.036v1.036H17.248Zm-6.214,0H12.07v1.036H11.034Zm1.036-1.036h1.036v1.036H12.07Zm1.036,1.036h1.036v1.036H13.106Zm2.071,0h1.036v1.036H15.177Zm1.036-1.036h1.036v1.036H16.213Zm1.036,3.107h1.036v1.036H17.248Zm-6.214,0H12.07v1.036H11.034Zm1.036-1.036h1.036v1.036H12.07Zm2.071,0h1.036v1.036H14.141Zm1.036,1.036h1.036v1.036H15.177Zm1.036-1.036h1.036v1.036H16.213Zm1.036,3.107h1.036V16.82H17.248ZM12.07,14.748h1.036v1.036H12.07Zm1.036,1.036h1.036V16.82H13.106Zm1.036-1.036h1.036v1.036H14.141Zm1.036,1.036h1.036V16.82H15.177ZM12.07,16.82h1.036v1.036H12.07Zm2.071,0h1.036v1.036H14.141Zm2.071,0h1.036v1.036H16.213Z" transform="translate(-1.714 -1.285)"/>
</svg>
