<svg xmlns="http://www.w3.org/2000/svg" width="13.618" height="14.964" viewBox="0 0 13.618 14.964">
  <g id="Icon_feather-share-2" data-name="Icon feather-share-2" transform="translate(0.75 0.75)">
    <path id="Path_1" data-name="Path 1" d="M19.322,4.161A2.161,2.161,0,1,1,17.161,2a2.161,2.161,0,0,1,2.161,2.161Z" transform="translate(-7.204 -2)" fill="none" stroke="#006b33" stroke-linecap="round" stroke-linejoin="round" stroke-width="1.5"/>
    <path id="Path_2" data-name="Path 2" d="M7.322,11.161A2.161,2.161,0,1,1,5.161,9a2.161,2.161,0,0,1,2.161,2.161Z" transform="translate(-3 -4.429)" fill="none" stroke="#006b33" stroke-linecap="round" stroke-linejoin="round" stroke-width="1.5"/>
    <path id="Path_3" data-name="Path 3" d="M19.322,18.161A2.161,2.161,0,1,1,17.161,16,2.161,2.161,0,0,1,19.322,18.161Z" transform="translate(-7.204 -6.858)" fill="none" stroke="#006b33" stroke-linecap="round" stroke-linejoin="round" stroke-width="1.5"/>
    <path id="Path_4" data-name="Path 4" d="M8.59,13.51l4.92,2.867" transform="translate(-4.988 -5.896)" fill="none" stroke="#006b33" stroke-linecap="round" stroke-linejoin="round" stroke-width="1.5"/>
    <path id="Path_5" data-name="Path 5" d="M13.5,6.51,8.59,9.377" transform="translate(-4.987 -3.527)" fill="none" stroke="#006b33" stroke-linecap="round" stroke-linejoin="round" stroke-width="1.5"/>
  </g>
</svg>
