<svg xmlns="http://www.w3.org/2000/svg" width="21.485" height="21.486" viewBox="0 0 21.485 21.486">
  <g id="bx-search-alt" transform="translate(-2 -2)">
    <path id="Path_25" data-name="Path 25" d="M11.188,20.376a9.132,9.132,0,0,0,5.623-1.938l5.05,5.048,1.624-1.624-5.049-5.049a9.177,9.177,0,1,0-7.248,3.563Zm0-16.079A6.891,6.891,0,1,1,4.3,11.188,6.9,6.9,0,0,1,11.188,4.3Z" fill="#797979"/>
    <path id="Path_26" data-name="Path 26" d="M12.041,8.964a2.287,2.287,0,0,1,.675,1.624h2.3A4.568,4.568,0,0,0,13.665,7.34a4.7,4.7,0,0,0-6.491,0L8.8,8.967a2.348,2.348,0,0,1,3.246,0Z" transform="translate(0.768 0.6)" fill="#797979"/>
  </g>
</svg>
