<svg xmlns="http://www.w3.org/2000/svg" width="21.001" height="21.001" viewBox="0 0 21.001 21.001">
  <g id="chatbubbles-sharp" transform="translate(-1.499 -1.5)">
    <path id="Path_23" data-name="Path 23" d="M21,14.645c.036-.052.071-.106.106-.157A8.182,8.182,0,0,0,22.5,9.93,8.587,8.587,0,0,0,13.732,1.5a8.707,8.707,0,0,0-8.6,6.709,8.1,8.1,0,0,0-.188,1.726,8.563,8.563,0,0,0,8.633,8.536,10.379,10.379,0,0,0,2.383-.389c.571-.157,1.136-.363,1.282-.419a.952.952,0,0,1,.557-.06l3.629,1.049a.188.188,0,0,0,.234-.228l-.831-3.164c-.058-.234-.065-.278.165-.616Z"/>
    <path id="Path_24" data-name="Path 24" d="M14.65,19.471a7.749,7.749,0,0,1-1.09.1,9.932,9.932,0,0,1-5.391-1.509A8.629,8.629,0,0,1,5.68,15.746,9.693,9.693,0,0,1,3.791,9.911c0-.147.005-.288.01-.429a.2.2,0,0,0-.353-.146,7.442,7.442,0,0,0-.7,9.152c.116.177.181.313.161.4l-.66,3.387a.188.188,0,0,0,.245.212l3.188-1.136a.79.79,0,0,1,.606.01,8.465,8.465,0,0,0,3.064.606,7.943,7.943,0,0,0,5.467-2.156.2.2,0,0,0-.172-.343Z"/>
  </g>
</svg>
