<svg xmlns="http://www.w3.org/2000/svg" width="18.996" height="17.809" viewBox="0 0 18.996 17.809">
  <g id="heart" transform="translate(0 0)">
    <path id="Path_13" data-name="Path 13" d="M9.5,3.263l-.851-.875A4.459,4.459,0,0,0,1.662,3.624C1.042,4.839.9,6.593,2.035,8.83,3.127,10.985,5.4,13.566,9.5,16.378c4.1-2.811,6.369-5.393,7.463-7.548,1.133-2.239.995-3.992.373-5.206A4.459,4.459,0,0,0,10.35,2.386Zm0,14.546C-8.707,5.78,3.893-3.609,9.289,1.358c.071.066.141.133.209.2q.1-.1.209-.2C15.1-3.612,27.7,5.778,9.5,17.809Z" transform="translate(0 0)" fill-rule="evenodd"/>
  </g>
</svg>
