<svg xmlns="http://www.w3.org/2000/svg" width="20.167" height="18.828" viewBox="0 0 20.167 18.828">
  <path id="heart" d="M18.63,4.248a8.534,8.534,0,0,1-1.381,7.6,21.309,21.309,0,0,1-3.433,3.71c-1.129,1.076-3.657,3.2-4.326,3.263a5.485,5.485,0,0,1-1.727-1.154C5.122,15.61,2.279,13.111.838,10.38-.371,7.757-.374,4.513,1.508,2.5a5.474,5.474,0,0,1,7.982.54,5.425,5.425,0,0,1,1.849-1.569A5.51,5.51,0,0,1,18.63,4.248Z" transform="translate(0.629 -0.494)" fill="#fff" stroke="#fff" stroke-width="1"/>
</svg>
