<svg xmlns="http://www.w3.org/2000/svg" width="21.911" height="20.45" viewBox="0 0 21.911 20.45">
  <g id="home" transform="translate(0)">
    <path id="Path_17" data-name="Path 17" d="M11.958,4.75a.349.349,0,0,0-.5,0L3.109,13.17A.394.394,0,0,0,3,13.447l0,7.9a1.493,1.493,0,0,0,1.451,1.532H8.8a.747.747,0,0,0,.725-.766V15.605a.373.373,0,0,1,.363-.383h3.627a.373.373,0,0,1,.363.383v6.512a.747.747,0,0,0,.725.766h4.356a1.493,1.493,0,0,0,1.451-1.532v-7.9a.394.394,0,0,0-.112-.277Z" transform="translate(-0.75 -2.433)"/>
    <path id="Path_18" data-name="Path 18" d="M22.428,11.445,19.014,8.091V3a.74.74,0,0,0-.73-.75H16.092a.74.74,0,0,0-.73.75V4.5L12.718,1.9a1.468,1.468,0,0,0-2.024,0L.986,11.444a.78.78,0,0,0-.061,1.049.717.717,0,0,0,1.059.049l9.471-9.294a.358.358,0,0,1,.5,0l9.473,9.294a.717.717,0,0,0,1.031-.021.783.783,0,0,0-.035-1.077Z" transform="translate(-0.75 -1.5)"/>
  </g>
</svg>
