<svg xmlns="http://www.w3.org/2000/svg" width="20" height="14" viewBox="0 0 20 14">
  <g id="menu-left" transform="translate(-2 -5)">
    <path id="Path_10" data-name="Path 10" d="M2,5.995A1,1,0,0,1,2.995,5h8.01a.995.995,0,0,1,0,1.99H2.995A1,1,0,0,1,2,5.995Z"/>
    <path id="Path_11" data-name="Path 11" d="M2,12a1,1,0,0,1,.995-.995h18.01a.995.995,0,1,1,0,1.99H2.995A1,1,0,0,1,2,12Z"/>
    <path id="Path_12" data-name="Path 12" d="M2.995,17.01A1,1,0,0,0,3,19h12.01a.995.995,0,1,0,0-1.99Z"/>
  </g>
</svg>
