<svg xmlns="http://www.w3.org/2000/svg" width="18.5" height="16.033" viewBox="0 0 18.5 16.033">
  <path id="truck" d="M17.164,5.86a1.234,1.234,0,0,0-1.011-.526h-3.07V3.483A1.235,1.235,0,0,0,11.85,2.25H1.983A1.235,1.235,0,0,0,.75,3.483V16.125H2.8a2.62,2.62,0,0,0,5.159,0h4.091a2.62,2.62,0,0,0,5.159,0H19.25V9.13a.92.92,0,0,0-.167-.53ZM1.983,3.483H11.85v6.783H1.983ZM5.375,17.05a1.388,1.388,0,1,1,1.388-1.388A1.388,1.388,0,0,1,5.375,17.05Zm9.25,0a1.388,1.388,0,1,1,1.388-1.388,1.388,1.388,0,0,1-1.388,1.388Zm3.392-2.158H17.13a2.621,2.621,0,0,0-5.01,0H7.88a2.621,2.621,0,0,0-5.01,0H1.983V11.5H18.017Zm0-4.625H13.083v-3.7h3.07l1.863,2.661Z" transform="translate(-0.75 -2.25)"/>
</svg>
