<svg xmlns="http://www.w3.org/2000/svg" width="22.5" height="19.5" viewBox="0 0 22.5 19.5">
  <path id="truck" d="M20.713,6.64A1.5,1.5,0,0,0,19.484,6H15.75V3.75a1.5,1.5,0,0,0-1.5-1.5h-12a1.5,1.5,0,0,0-1.5,1.5V19.125H3.238a3.187,3.187,0,0,0,6.274,0h4.976a3.187,3.187,0,0,0,6.274,0H23.25V10.618a1.119,1.119,0,0,0-.2-.645ZM2.249,3.75h12V12h-12Zm4.126,16.5a1.688,1.688,0,1,1,1.688-1.688A1.688,1.688,0,0,1,6.375,20.25Zm11.25,0a1.688,1.688,0,1,1,1.688-1.688,1.688,1.688,0,0,1-1.688,1.688Zm4.125-2.625H20.672a3.188,3.188,0,0,0-6.093,0H9.422a3.188,3.188,0,0,0-6.093,0H2.25V13.5h19.5Zm0-5.625h-6V7.5h3.734l2.266,3.236Z" transform="translate(-0.75 -2.25)" fill="#797979"/>
</svg>
