<svg xmlns="http://www.w3.org/2000/svg" width="22.5" height="21" viewBox="0 0 22.5 21">
  <g id="user-profile" transform="translate(-1.5 -1.5)">
    <path id="Path_27" data-name="Path 27" d="M9,3A3.75,3.75,0,1,1,5.25,6.75,3.75,3.75,0,0,1,9,3M9,1.5a5.25,5.25,0,1,0,5.25,5.25A5.25,5.25,0,0,0,9,1.5Z" fill="#797979"/>
    <path id="Path_28" data-name="Path 28" d="M16.5,22.5H15V18.75A3.75,3.75,0,0,0,11.25,15H6.75A3.75,3.75,0,0,0,3,18.75V22.5H1.5V18.75A5.25,5.25,0,0,1,6.75,13.5h4.5a5.25,5.25,0,0,1,5.25,5.25Z" fill="#797979"/>
    <path id="Path_29" data-name="Path 29" d="M16.5,3H24V4.5H16.5Z" fill="#797979"/>
    <path id="Path_30" data-name="Path 30" d="M16.5,6.75H24v1.5H16.5Z" fill="#797979"/>
    <path id="Path_31" data-name="Path 31" d="M16.5,10.5h5.25V12H16.5Z" fill="#797979"/>
  </g>
</svg>
