<svg xmlns="http://www.w3.org/2000/svg" width="18.999" height="19.443" viewBox="0 0 18.999 19.443">
  <path id="bxl-whatsapp" d="M19.231,5.826A9.313,9.313,0,0,0,12.54,3a9.562,9.562,0,0,0-9.461,9.634,9.771,9.771,0,0,0,1.262,4.817L3,22.443,8.015,21.1a9.328,9.328,0,0,0,4.521,1.173h0A9.562,9.562,0,0,0,22,12.641a9.67,9.67,0,0,0-2.768-6.815M12.54,20.649h0a7.739,7.739,0,0,1-4-1.118l-.286-.173-2.976.8L6.065,17.2l-.187-.3a8.1,8.1,0,0,1-1.2-4.262,7.948,7.948,0,0,1,7.866-8.007A7.74,7.74,0,0,1,18.1,6.975a8.039,8.039,0,0,1,2.3,5.666,7.948,7.948,0,0,1-7.862,8.008m4.313-6c-.237-.121-1.4-.7-1.615-.783s-.373-.12-.531.12-.611.782-.749.943-.276.18-.512.06a6.433,6.433,0,0,1-1.9-1.195,7.234,7.234,0,0,1-1.315-1.668c-.138-.241-.015-.371.1-.492s.236-.281.354-.422a1.653,1.653,0,0,0,.236-.4.447.447,0,0,0-.02-.422c-.059-.121-.532-1.306-.729-1.788-.191-.467-.386-.4-.531-.411s-.3-.009-.452-.009a.864.864,0,0,0-.631.3,2.72,2.72,0,0,0-.827,2.008A4.734,4.734,0,0,0,8.7,12.984a10.618,10.618,0,0,0,4.038,3.635,13.818,13.818,0,0,0,1.348.508,3.191,3.191,0,0,0,1.489.1,2.433,2.433,0,0,0,1.6-1.144,2.049,2.049,0,0,0,.138-1.145c-.059-.1-.218-.162-.453-.282" transform="translate(-3 -3)" fill-rule="evenodd"/>
</svg>
